<?xml version="1.0" standalone="no"?>
<!DOCTYPE svg PUBLIC "-//W3C//DTD SVG 20010904//EN"
 "http://www.w3.org/TR/2001/REC-SVG-20010904/DTD/svg10.dtd">
<svg version="1.0" xmlns="http://www.w3.org/2000/svg"
 width="320.000000pt" height="1280.000000pt" viewBox="0 0 320.000000 1280.000000"
 preserveAspectRatio="xMidYMid meet">
<metadata>
Created by potrace 1.15, written by Peter Selinger 2001-2017
</metadata>
<g transform="translate(-160.000000,1280.000000) scale(0.100000,-0.100000)"
fill="#ff1393" stroke="none">
<path d="M3090 12794 c-344 -67 -593 -291 -820 -739 -146 -288 -258 -611 -354
-1025 -82 -354 -112 -579 -101 -750 25 -377 130 -706 316 -990 49 -75 112
-144 292 -325 296 -297 432 -465 530 -660 59 -119 67 -160 74 -380 7 -228 -13
-1217 -28 -1435 -10 -149 -57 -671 -109 -1215 -41 -437 -66 -728 -95 -1120
-94 -1267 -144 -1907 -160 -2060 -48 -444 -67 -971 -46 -1258 20 -273 68 -489
132 -603 58 -103 170 -180 309 -215 71 -18 269 -18 340 0 139 35 251 112 309
215 150 264 182 966 86 1861 -16 154 -67 799 -160 2060 -29 392 -54 683 -95
1120 -52 546 -99 1066 -109 1210 -15 210 -35 1222 -28 1445 7 215 15 257 74
375 98 195 234 363 530 660 180 181 243 250 292 325 186 284 291 613 316 990
11 171 -19 396 -101 750 -96 414 -208 737 -354 1025 -204 403 -437 634 -722
716 -71 20 -260 34 -318 23z"/>
</g>
</svg>
