<?xml version="1.0" encoding="UTF-8" standalone="no"?>
<!DOCTYPE svg PUBLIC "-//W3C//DTD SVG 1.1//EN" "http://www.w3.org/Graphics/SVG/1.1/DTD/svg11.dtd">
<svg xmlns:xl="http://www.w3.org/1999/xlink" xmlns:dc="http://purl.org/dc/elements/1.1/" xmlns="http://www.w3.org/2000/svg" version="1.1" viewBox="-319.61815 501.1131 1279.2363 277.4375" width="1279.2363" height="277.4375">
  <defs/>
  <metadata> Produced by OmniGraffle 7.9.3 
    <dc:date>2019-12-29 23:33:47 +0000</dc:date>
  </metadata>
  <g id="Canvas_1" stroke-opacity="1" stroke="none" stroke-dasharray="none" fill="none" fill-opacity="1">
    <title>Canvas 1</title>
    <g id="Canvas_1: Layer 1">
      <title>Layer 1</title>
      <g id="Group_2">
        <g id="Graphic_3">
          <path d="M -319.23185 650.83185 C -312.53185 685.23185 -290.13185 710.13185 -245.33185 732.83185 C -216.53185 747.43185 -184.23185 758.63185 -142.83185 768.23185 C -107.43185 776.43185 -84.93185 779.43185 -67.83185 778.33185 C -30.13185 775.83185 2.768149 765.33185 31.16815 746.73185 C 38.66815 741.83185 45.56815 735.53185 63.66815 717.53185 C 93.36815 687.93185 110.16815 674.33185 129.66815 664.53185 C 141.56815 658.63185 145.66815 657.83185 167.66815 657.13185 C 190.46815 656.43185 289.36815 658.43185 311.16815 659.93185 C 326.06815 660.93185 378.26815 665.63185 432.66815 670.83185 C 476.36815 674.93185 505.46815 677.43185 544.66815 680.33185 C 671.36815 689.73185 735.36815 694.73185 750.66815 696.33185 C 795.06815 701.13185 847.7681 703.03185 876.4681 700.93185 C 903.7681 698.93185 925.3681 694.13185 936.7681 687.73185 C 947.0681 681.93185 954.7681 670.73185 958.2681 656.83185 C 960.0681 649.73185 960.0681 629.93185 958.2681 622.83185 C 954.7681 608.93185 947.0681 597.73185 936.7681 591.93185 C 910.3681 576.93185 840.1681 573.73185 750.66815 583.33185 C 735.26815 584.93185 670.76815 590.03185 544.66815 599.33185 C 505.46815 602.23185 476.36815 604.73185 432.66815 608.83185 C 378.06815 614.03185 326.06815 618.73185 311.66815 619.73185 C 290.66815 621.23185 189.46815 623.23185 167.16815 622.53185 C 145.66815 621.83185 141.46815 621.03185 129.66815 615.13185 C 110.16815 605.33185 93.36815 591.73185 63.66815 562.13185 C 45.56815 544.13185 38.66815 537.83185 31.16815 532.93185 C 2.768149 514.33185 -30.13185 503.83185 -67.83185 501.33185 C -84.93185 500.23185 -107.43185 503.23185 -142.83185 511.43185 C -184.23185 521.03185 -216.53185 532.23185 -245.33185 546.83185 C -285.63185 567.23185 -308.73185 590.53185 -316.93185 619.03185 C -318.93185 626.13185 -320.33185 645.03185 -319.23185 650.83185 Z" fill="#ff1393"/>
        </g>
      </g>
    </g>
  </g>
</svg>
